<svg width="609" height="240" viewBox="0 0 609 240" fill="none" xmlns="http://www.w3.org/2000/svg">
<path d="M88.6259 92.884C89.6579 102.029 82.0285 109.658 72.8839 108.626C50.6454 106.116 29.1775 101.085 8.76794 93.8272C-2.4824 89.8264 -3.09433 76.2404 8.02386 71.8859C17.0872 68.3361 26.3037 65.2483 32.6321 63.2263C37.6645 61.6183 41.6182 57.6646 43.2262 52.6322C45.2482 46.3038 48.336 37.0872 51.8858 28.0238C56.2403 16.9057 69.8263 17.5176 73.8271 28.7679C81.0851 49.1775 86.1161 70.6453 88.6259 92.884Z" fill="#0081FF"/>
<path d="M111.382 92.884C110.35 102.029 117.979 109.658 127.124 108.626C149.362 106.116 170.83 101.085 191.24 93.8272C202.49 89.8264 203.102 76.2404 191.984 71.8859C182.921 68.3361 173.704 65.2483 167.376 63.2263C162.343 61.6183 158.39 57.6646 156.782 52.6322C154.76 46.3038 151.672 37.0872 148.122 28.0238C143.767 16.9057 130.182 17.5176 126.181 28.7679C118.923 49.1775 113.892 70.6453 111.382 92.884Z" fill="#0081FF"/>
<path d="M88.6259 147.116C89.6579 137.971 82.0285 130.342 72.8839 131.374C50.6454 133.884 29.1775 138.915 8.76794 146.173C-2.4824 150.174 -3.09433 163.76 8.02386 168.114C17.0872 171.664 26.3037 174.752 32.6321 176.774C37.6645 178.382 41.6182 182.335 43.2262 187.368C45.2482 193.696 48.336 202.913 51.8858 211.976C56.2403 223.094 69.8263 222.482 73.8271 211.232C81.0851 190.823 86.1161 169.355 88.6259 147.116Z" fill="#0081FF"/>
<path d="M111.382 147.116C110.35 137.971 117.979 130.342 127.124 131.374C149.362 133.884 170.83 138.915 191.24 146.173C202.49 150.174 203.102 163.76 191.984 168.114C182.921 171.664 173.704 174.752 167.376 176.774C162.343 178.382 158.39 182.335 156.782 187.368C154.76 193.696 151.672 202.913 148.122 211.976C143.767 223.094 130.182 222.482 126.181 211.232C118.923 190.823 113.892 169.355 111.382 147.116Z" fill="#0081FF"/>
<path d="M260.008 168.696V40H280.008V151.483H340.008V168.696H260.008Z" fill="#0B0B0B"/>
<path d="M356.972 200C353.222 200 349.204 199.554 346.883 199.108V184.036C348.401 184.392 350.633 184.749 353.222 184.749C362.329 184.749 367.329 182.341 370.544 173.244L372.151 168.785L337.954 74.8718H358.847L382.508 151.215H383.133L406.794 74.8718H427.151L392.151 173.066C385.186 192.508 375.365 200 356.972 200Z" fill="#0B0B0B"/>
<path d="M473.401 170.569C449.919 170.569 436.169 158.974 434.204 141.851L434.115 141.048H453.222L453.401 141.94C455.187 150.591 461.615 155.674 473.49 155.674C485.097 155.674 492.061 150.858 492.061 143.278V143.188C492.061 137.124 488.669 133.645 478.579 131.237L463.222 127.759C445.365 123.657 436.526 115.095 436.526 101.449V101.36C436.526 84.5931 451.169 73.0881 472.776 73.0881C495.008 73.0881 508.401 85.485 509.383 101.449L509.472 102.52H491.347L491.258 101.895C490.097 93.6901 483.669 87.9822 472.776 87.9822C462.419 87.9822 455.901 92.8874 455.901 100.379V100.468C455.901 106.265 459.74 110.19 469.829 112.598L485.097 116.076C504.294 120.535 511.615 128.116 511.615 141.583V141.672C511.615 158.796 495.544 170.569 473.401 170.569Z" fill="#0B0B0B"/>
<path d="M566.704 170.569C539.115 170.569 522.419 151.75 522.419 122.14V122.051C522.419 92.709 539.383 73.0881 565.722 73.0881C592.061 73.0881 608.222 91.9955 608.222 120.178V126.689H541.704C542.061 144.437 551.794 154.783 567.151 154.783C578.579 154.783 586.169 148.896 588.579 141.851L588.847 141.137H607.151L606.972 142.118C603.936 157.012 589.472 170.569 566.704 170.569ZM565.811 88.874C553.311 88.874 543.669 97.3467 541.972 113.043H589.115C587.508 96.8116 578.401 88.874 565.811 88.874Z" fill="#0B0B0B"/>
</svg>
