<svg width="24" height="24" viewBox="0 0 24 24" fill="none" xmlns="http://www.w3.org/2000/svg">
<path d="M10.8626 9.2884C10.9658 10.2029 10.2029 10.9658 9.28839 10.8626C7.06454 10.6116 4.91775 10.1085 2.87679 9.38271C1.75176 8.98264 1.69057 7.62404 2.80239 7.18859C3.70872 6.83361 4.63037 6.52483 5.26321 6.32263C5.76645 6.16183 6.16182 5.76646 6.32261 5.26322C6.52482 4.63038 6.8336 3.70872 7.18858 2.80238C7.62403 1.69057 8.98263 1.75176 9.38271 2.87679C10.1085 4.91775 10.6116 7.06453 10.8626 9.2884Z" fill="#FAFAFA"/>
<path d="M13.1382 9.2884C13.035 10.2029 13.7979 10.9658 14.7124 10.8626C16.9362 10.6116 19.083 10.1085 21.124 9.38271C22.249 8.98264 22.3102 7.62404 21.1984 7.18859C20.2921 6.83361 19.3704 6.52483 18.7376 6.32263C18.2343 6.16183 17.839 5.76646 17.6782 5.26322C17.476 4.63038 17.1672 3.70872 16.8122 2.80238C16.3767 1.69057 15.0182 1.75176 14.6181 2.87679C13.8923 4.91775 13.3892 7.06453 13.1382 9.2884Z" fill="#FAFAFA"/>
<path d="M10.8626 14.7116C10.9658 13.7971 10.2029 13.0342 9.28839 13.1374C7.06454 13.3884 4.91775 13.8915 2.87679 14.6173C1.75176 15.0174 1.69057 16.376 2.80239 16.8114C3.70872 17.1664 4.63037 17.4752 5.26321 17.6774C5.76645 17.8382 6.16182 18.2335 6.32261 18.7368C6.52482 19.3696 6.8336 20.2913 7.18858 21.1976C7.62403 22.3094 8.98263 22.2482 9.38271 21.1232C10.1085 19.0822 10.6116 16.9355 10.8626 14.7116Z" fill="#FAFAFA"/>
<path d="M13.1382 14.7116C13.035 13.7971 13.7979 13.0342 14.7124 13.1374C16.9362 13.3884 19.083 13.8915 21.124 14.6173C22.249 15.0174 22.3102 16.376 21.1984 16.8114C20.2921 17.1664 19.3704 17.4752 18.7376 17.6774C18.2343 17.8382 17.839 18.2335 17.6782 18.7368C17.476 19.3696 17.1672 20.2913 16.8122 21.1976C16.3767 22.3094 15.0182 22.2482 14.6181 21.1232C13.8923 19.0822 13.3892 16.9355 13.1382 14.7116Z" fill="#FAFAFA"/>
</svg>
