<svg width="142" height="60" viewBox="0 0 142 60" fill="none" xmlns="http://www.w3.org/2000/svg">
<path d="M20.7609 23.6729C21.0017 25.8066 19.2215 27.5868 17.0878 27.346C11.8988 26.7604 6.88962 25.5865 2.1274 23.893C-0.497683 22.9595 -0.640468 19.7894 1.95378 18.7733C4.06856 17.9451 6.21907 17.2246 7.6957 16.7528C8.86993 16.3776 9.79246 15.455 10.1676 14.2808C10.6395 12.8042 11.36 10.6536 12.1882 8.53886C13.2043 5.94462 16.3743 6.0874 17.3079 8.71247C19.0014 13.4747 20.1753 18.4839 20.7609 23.6729Z" fill="#2B7FFF"/>
<path d="M26.0707 23.6729C25.8298 25.8066 27.61 27.5868 29.7438 27.346C34.9328 26.7604 39.942 25.5865 44.7042 23.893C47.3293 22.9595 47.472 19.7894 44.8778 18.7733C42.763 17.9451 40.6125 17.2246 39.1359 16.7528C37.9616 16.3776 37.0391 15.455 36.6639 14.2808C36.1921 12.8042 35.4716 10.6536 34.6433 8.53886C33.6273 5.94462 30.4572 6.0874 29.5237 8.71247C27.8302 13.4747 26.6563 18.4839 26.0707 23.6729Z" fill="#2B7FFF"/>
<path d="M20.7609 36.327C21.0017 34.1933 19.2215 32.4131 17.0878 32.6539C11.8988 33.2396 6.88962 34.4135 2.1274 36.107C-0.497683 37.0405 -0.640468 40.2105 1.95378 41.2266C4.06856 42.0549 6.21907 42.7754 7.6957 43.2472C8.86993 43.6224 9.79246 44.5449 10.1676 45.7191C10.6395 47.1958 11.36 49.3463 12.1882 51.4611C13.2043 54.0553 16.3743 53.9125 17.3079 51.2874C19.0014 46.5252 20.1753 41.5161 20.7609 36.327Z" fill="#2B7FFF"/>
<path d="M26.0707 36.327C25.8298 34.1933 27.61 32.4131 29.7438 32.6539C34.9328 33.2396 39.942 34.4135 44.7042 36.107C47.3293 37.0405 47.472 40.2105 44.8778 41.2266C42.763 42.0549 40.6125 42.7754 39.1359 43.2472C37.9616 43.6224 37.0391 44.5449 36.6639 45.7191C36.1921 47.1958 35.4716 49.3463 34.6433 51.4611C33.6273 54.0553 30.4572 53.9125 29.5237 51.2874C27.8302 46.5252 26.6563 41.5161 26.0707 36.327Z" fill="#2B7FFF"/>
<path d="M60.75 41.3624V11.3334H65.4167V37.346H79.4167V41.3624H60.75Z" fill="white"/>
<path d="M83.375 48.6667C82.5 48.6667 81.5625 48.5627 81.0208 48.4586V44.9417C81.375 45.0249 81.8958 45.1082 82.5 45.1082C84.625 45.1082 85.7917 44.5463 86.5417 42.4237L86.9167 41.3832L78.9375 19.4701H83.8125L89.3333 37.2836H89.4792L95 19.4701H99.75L91.5833 42.3821C89.9583 46.9187 87.6667 48.6667 83.375 48.6667Z" fill="white"/>
<path d="M110.542 41.7994C105.062 41.7994 101.854 39.0941 101.396 35.0985L101.375 34.9112H105.833L105.875 35.1193C106.292 37.1379 107.792 38.3241 110.562 38.3241C113.271 38.3241 114.896 37.2003 114.896 35.4315V35.4107C114.896 33.9956 114.104 33.184 111.75 32.6221L108.167 31.8105C104 30.8533 101.937 28.8555 101.937 25.6715V25.6507C101.937 21.7384 105.354 19.0539 110.396 19.0539C115.583 19.0539 118.708 21.9465 118.937 25.6715L118.958 25.9213H114.729L114.708 25.7756C114.437 23.8611 112.937 22.5292 110.396 22.5292C107.979 22.5292 106.458 23.6738 106.458 25.4218V25.4426C106.458 26.7953 107.354 27.7109 109.708 28.2728L113.271 29.0844C117.75 30.1249 119.458 31.8938 119.458 35.0361V35.0569C119.458 39.0524 115.708 41.7994 110.542 41.7994Z" fill="white"/>
<path d="M132.312 41.7994C125.875 41.7994 121.979 37.4084 121.979 30.4995V30.4787C121.979 23.6321 125.937 19.0539 132.083 19.0539C138.229 19.0539 142 23.4657 142 30.0417V31.5608H126.479C126.562 35.702 128.833 38.116 132.417 38.116C135.083 38.116 136.854 36.7425 137.417 35.0985L137.479 34.932H141.75L141.708 35.1609C141 38.6362 137.625 41.7994 132.312 41.7994ZM132.104 22.7373C129.187 22.7373 126.937 24.7143 126.542 28.3769H137.542C137.167 24.5894 135.042 22.7373 132.104 22.7373Z" fill="white"/>
</svg>
