<svg width="48" height="48" viewBox="0 0 48 48" fill="none" xmlns="http://www.w3.org/2000/svg">
<g transform="translate(6 6) scale(0.75)">
<path d="M20.7609 19.6729C21.0017 21.8066 19.2215 23.5868 17.0878 23.346C11.8988 22.7604 6.88962 21.5865 2.1274 19.893C-0.497683 18.9595 -0.640468 15.7894 1.95378 14.7733C4.06856 13.9451 6.21907 13.2246 7.6957 12.7528C8.86993 12.3776 9.79246 11.455 10.1676 10.2808C10.6395 8.80418 11.36 6.65364 12.1882 4.53886C13.2043 1.94462 16.3743 2.0874 17.3079 4.71247C19.0014 9.47466 20.1753 14.4839 20.7609 19.6729Z" fill="white"/>
<path d="M26.0707 19.6729C25.8298 21.8066 27.61 23.5868 29.7438 23.346C34.9328 22.7604 39.942 21.5865 44.7042 19.893C47.3293 18.9595 47.472 15.7894 44.8778 14.7733C42.763 13.9451 40.6125 13.2246 39.1359 12.7528C37.9616 12.3776 37.0391 11.455 36.6639 10.2808C36.1921 8.80418 35.4716 6.65364 34.6433 4.53886C33.6273 1.94462 30.4572 2.0874 29.5237 4.71247C27.8302 9.47466 26.6563 14.4839 26.0707 19.6729Z" fill="white"/>
<path d="M20.7609 32.327C21.0017 30.1933 19.2215 28.4131 17.0878 28.6539C11.8988 29.2396 6.88962 30.4135 2.1274 32.107C-0.497683 33.0405 -0.640468 36.2105 1.95378 37.2266C4.06856 38.0549 6.21907 38.7754 7.6957 39.2472C8.86993 39.6224 9.79246 40.5449 10.1676 41.7191C10.6395 43.1958 11.36 45.3463 12.1882 47.4611C13.2043 50.0553 16.3743 49.9125 17.3079 47.2874C19.0014 42.5252 20.1753 37.5161 20.7609 32.327Z" fill="white"/>
<path d="M26.0707 32.327C25.8298 30.1933 27.61 28.4131 29.7438 28.6539C34.9328 29.2396 39.942 30.4135 44.7042 32.107C47.3293 33.0405 47.472 36.2105 44.8778 37.2266C42.763 38.0549 40.6125 38.7754 39.1359 39.2472C37.9616 39.6224 37.0391 40.5449 36.6639 41.7191C36.1921 43.1958 35.4716 45.3463 34.6433 47.4611C33.6273 50.0553 30.4572 49.9125 29.5237 47.2874C27.8302 42.5252 26.6563 37.5161 26.0707 32.327Z" fill="white"/>
</g>
</svg>
